<svg fill="none" height="48" width="48" xmlns="http://www.w3.org/2000/svg"><path d="m24 48c13.255 0 24-10.745 24-24s-10.745-24-24-24-24 10.745-24 24 10.745 24 24 24z" fill="#5c2d91"/><g fill="#fff"><path d="m7.923 6.657a23.67 23.67 0 1 0 33.42 33.42z" opacity=".1"/><path d="m8.043 36.108a.999.999 0 0 1 -.74-.31 1.02 1.02 0 0 1 -.303-.74 1.036 1.036 0 0 1 .303-.74.991.991 0 0 1 .74-.318 1.013 1.013 0 0 1 .74.318 1.028 1.028 0 0 1 .31.74 1.013 1.013 0 0 1 -.31.74 1.02 1.02 0 0 1 -.74.31zm10.872-.36h-1.451l-5.186-8.05a3.331 3.331 0 0 1 -.322-.632h-.044c.05.459.068.92.057 1.382v7.3h-1.18v-10.095h1.533l5.047 7.912c.21.328.347.553.41.675-.057-.492-.08-.988-.07-1.483v-7.104h1.18zm6.978 0h-5.344v-10.095h5.117v1.066h-3.937v3.35h3.64v1.06h-3.64v3.527h4.164zm7.899-9.028h-2.909v9.028h-1.18v-9.029h-2.902v-1.066h6.997l-.006 1.066zm-13.848-3.963h-1.306l-1.092-2.826h-4.252l-1.003 2.826h-1.32l3.868-10.095h1.224l3.88 10.095zm-2.764-3.886-1.583-4.297a4.114 4.114 0 0 1 -.158-.675 3.83 3.83 0 0 1 -.164.675l-1.571 4.297zm3.78 3.476v-1.388c.174.15.367.277.573.378.226.114.46.209.7.284.244.076.493.135.745.177.227.04.457.061.688.063a2.7 2.7 0 0 0 1.628-.404 1.514 1.514 0 0 0 .36-1.893c-.132-.212-.3-.398-.5-.548a4.984 4.984 0 0 0 -.75-.48l-.927-.454a13.265 13.265 0 0 1 -.985-.543 4.214 4.214 0 0 1 -.795-.63 2.524 2.524 0 0 1 -.53-.72 2.555 2.555 0 0 1 .108-2.177c.198-.336.47-.623.795-.839a3.615 3.615 0 0 1 1.123-.492 5.167 5.167 0 0 1 1.261-.164 4.927 4.927 0 0 1 2.17.36v1.331a3.937 3.937 0 0 0 -2.29-.63c-.26 0-.52.027-.775.081a2.177 2.177 0 0 0 -.688.265c-.198.119-.366.28-.492.473-.13.21-.196.454-.19.7-.006.232.044.461.146.67.104.197.248.37.422.51.214.172.445.322.688.448.27.148.58.307.934.48.353.172.696.36 1.028.561.307.178.593.39.852.631.237.23.434.5.58.795.148.312.22.653.215.997.014.439-.086.874-.29 1.262-.19.34-.462.628-.789.839-.35.224-.736.382-1.142.467a6.307 6.307 0 0 1 -1.363.145 7.467 7.467 0 0 1 -1.312-.151 5.673 5.673 0 0 1 -.694-.183 2.137 2.137 0 0 1 -.505-.221zm8.724-3.4v3.785h-1.18v-10.094h2.77c.91-.062 1.81.22 2.524.788a2.808 2.808 0 0 1 .89 2.221 3.054 3.054 0 0 1 -.991 2.347 3.785 3.785 0 0 1 -2.669.915zm0-5.205v4.132h1.262a2.763 2.763 0 0 0 1.893-.561 1.981 1.981 0 0 0 .63-1.578c0-1.329-.786-1.993-2.359-1.993z"/></g></svg>