<svg height="32" viewBox="0 0 32 32" width="32" xmlns="http://www.w3.org/2000/svg"><g fill="none" fill-rule="evenodd"><circle cx="16" cy="16" fill="#328332" r="16"/><g fill="#fff"><path d="m15.989 16.553-6.721-.577 6.72-3.802v4.379zm0 4.46v6.94c-2.337-3.638-4.913-7.642-6.989-10.883 2.45 1.38 5.008 2.823 6.989 3.944zm0-10.068-6.989 3.9 6.989-10.845z" fill-rule="nonzero"/><path d="m22.71 15.976-6.721.577v-4.379l6.72 3.802zm-6.721 5.038c1.98-1.12 4.537-2.564 6.988-3.944-2.076 3.242-4.652 7.246-6.988 10.882zm0-10.069v-6.945l6.988 10.845z" fill-opacity=".601" fill-rule="nonzero"/><path d="m15.989 16.553 6.72-.577-6.72 3.775z" opacity=".2"/><path d="m15.988 16.553-6.721-.577 6.721 3.775z" opacity=".603"/></g></g></svg>