<svg viewBox="0 0 16 16" xmlns="http://www.w3.org/2000/svg"><path d="m10.0277917 13c-.12500001-.1805417-1.75175001-2.9958333-1.75175001-2.9958333l5.30033331-1.3791667c.1319583-.04166669.173625-.06945831.2569583.0625.0833334.13195831 1.7500417 2.3957917 1.798625 2.4722083.0485834.0764167.0971667.1250417-.0555833.1805834-.15275.0555416-5.1527917 1.7430416-5.25 1.7847083s-.1735833.0555417-.2985833-.125zm5.9722083-2.3052917c-.496875-.6694166-1.199125-1.6099583-1.6482917-2.2109583.29775-.07920831 1.0519584-.28004169 1.6482917-.43895831zm-1.6534167-5.47462497c.0817084-.01854166.1523334-.04083333.2525834.096625.0832916.114125 1.0470833 1.33541667 1.4008333 1.78399998v.28916669c-.0092083.00229169-.018625.00454169-.02825.00666669-.118875.026-2.0650417.50883331-2.0650417.50883331l-1.5917083-2.18391667c-.0445833-.063125-.0817083-.12629166.0297083-.141125.1114167-.01483333 1.9201667-.34170833 2.001875-.36025zm-11.3805833-3.43045833c-.274125.01245833-1.82558333.13825-2.80545833.21875.14354166-.41541667.38308333-.79158333.71966666-1.12816667.58679167-.58679166 1.29341667-.88020833 2.11979167-.88020833h10c.826375 0 1.533.29341667 2.1197917.88020833.5867916.58679167.8802083 1.29341667.8802083 2.11979167v3.38075c-.4715417-.58654167-.9740833-1.21229167-1.1222917-1.39091667-.2896666-.349125-.4308333-.286-.609125-.26-.1782916.026-2.258125.375125-2.4995416.41595834-.2414167.04083333-.3936667.13741666-.245125.34541666.132125.18495834 1.4994166 2.12341667 1.8005833 2.55033336l-5.43583331 1.30220831-4.32316669-7.227625c-.17208333-.25516667-.20783333-.34429167-.5995-.3265zm7.5520417 12.183125c.3088333-.0935833 4.2544166-1.5100833 5.4819583-1.9590833v.9863333c0 .8264167-.2934167 1.5329583-.8802083 2.1197917-.5867917.5867916-1.2934167.8802083-2.1197917.8802083h-10c-.826375 0-1.533-.2934167-2.11979167-.8802083-.58679166-.5868334-.88020833-1.293375-.88020833-2.1197917v-8.39683333c1.08058333 2.34429164 2.77516667 5.99787503 2.84175 6.14766663.09495833.213625.34179167.5601667.91983333.4212917.59220834-.1422917 2.64591667-.6782917 3.76808336-.9722083.59295831 1.07375 1.80225 3.251875 2.025875 3.5639583.29858331.4166667.50412501.34775.96250001.208875zm-6.7422917-3.64225c-.16245833.037125-.16241667.0185417-.181-.0371667-.01708333-.0511666-3.06154167-6.33004163-3.592-7.4159583.00408333-.11333333.013375-.2245.02879167-.33316667.52254166-.04366666 2.77945833-.24504166 2.86866666-.24975.10004167-.00525.08954167.01579167.126375.079 0 0 3.98870836 6.88495836 4.05833336 7.00558336s.027875.15779162-.037125.17170831-3.10958336.7425833-3.27204169.77975z" fill="#f35045"/></svg>