<svg height="24" viewBox="0 0 24 24" width="24" xmlns="http://www.w3.org/2000/svg"><g fill="#00d8ff" fill-rule="evenodd"><circle cx="11.996" cy="11.653" r="2.142"/><path d="m11.9957722 7.80914159c2.7680098 0 5.3974575.39024993 7.3964769 1.07843904 2.220138.76430017 3.5743844 1.89430267 3.5743844 2.76497737 0 .9274385-1.4625523 2.1314756-3.8373174 2.9183047-1.8905806.6263975-4.4200706.9678163-7.1335439.9678163-2.85057188 0-5.40859375-.334766-7.27724057-.973494-1.16986195-.3998603-2.13596507-.9195141-2.79815871-1.4866029-.59504454-.5095837-.89546189-1.0155193-.89546189-1.4260241 0-.8736034 1.30242898-1.98791019 3.47468578-2.74526407 1.99985565-.69719389 4.69366078-1.09815234 7.49617539-1.09815234zm0-1.02491103c-2.91139226 0-5.7180223.41775183-7.8335783 1.15528143-2.54004849.88558386-4.1621939 2.27342741-4.1621939 3.71304601 0 1.4868668 1.74140227 2.9781672 4.38703934 3.8824494 1.98863302.6797409 4.65421107 1.0285826 7.60873286 1.0285826 2.8157801 0 5.4516831-.3557819 7.4558922-1.0198274 2.7503929-.9112856 4.5398801-2.3844699 4.5398801-3.8912046 0-1.4448224-1.6744757-2.84202878-4.265675-3.73406977-2.1130039-.72742977-4.8541515-1.13425767-7.7300973-1.13425767zm-3.34794644 2.95895618c1.38280364-2.39780752 3.03447374-4.48067242 4.62928874-5.86858817 1.7712179-1.54140871 3.4266507-2.15004196 4.1808908-1.71509296.803422.46330626 1.1158129 2.33181731.6110402 4.78203648-.4018721 1.95069754-1.3697713 4.31249181-2.7253287 6.66309511-1.4240644 2.4693813-2.9919563 4.5180473-4.4788266 5.8177323-.93081991.8136674-1.86361354 1.3909652-2.68568009 1.681296-.7387018.2608888-1.32706688.2683762-1.68269777.063296-.7567642-.4364371-1.07138723-2.1213425-.64224772-4.3814566.39505993-2.080663 1.39345636-4.6144892 2.79356209-7.04231982zm-.88785176-.51201746c-1.45449941 2.52215112-2.49471421 5.16210792-2.91263036 7.36314782-.50179525 2.6427642-.10993839 4.7412812 1.13715267 5.460497 1.28808249.7427933 3.44989517-.0206983 5.55491959-1.8607857 1.5823391-1.3831349 3.2161583-3.517944 4.6921548-6.0773776 1.4066652-2.4392266 2.4152812-4.90037481 2.8413052-6.9683067.584618-2.83779665.2023947-5.12399801-1.1028688-5.87669929-1.2516025-.72176389-3.2984734.03078472-5.3657235 1.82981649-1.6857524 1.46705564-3.40758413 3.63839895-4.84430864 6.12970632zm.89105532 4.37904702c-1.38679348-2.3955126-2.36645054-4.86667905-2.77240876-6.94151071-.45087101-2.3043086-.1514135-4.04249989.60210671-4.4787092.80265119-.46467884 2.57748448.19784072 4.44813193 1.8588403 1.4893313 1.3223571 3.052091 3.34038228 4.4116142 5.68876921 1.428191 2.4669822 2.4200799 4.848498 2.8035434 6.7857599.2400692 1.2127883.2743689 2.3092399.1153469 3.1664404-.1428953.7702709-.4302486 1.2837387-.7855327 1.4894153-.7560675.4376974-2.3729646-.1311883-4.1167116-1.6317253-1.6052858-1.3813829-3.3019077-3.5118029-4.70609341-5.9372857zm-.88699481.5135005c1.45873399 2.5197054 3.22641419 4.7393522 4.92456919 6.2006509 2.0389793 1.7545917 4.0528027 2.4631311 5.2987202 1.741853 1.2868237-.7449518 1.7050097-2.9991642 1.1620963-5.741869-.4080852-2.0616506-1.4416801-4.5433024-2.9219514-7.10024529-1.4107793-2.4369247-3.0392832-4.53984686-4.6181162-5.94167131-2.166541-1.9237316-4.33813159-2.73435493-5.64211986-1.97943701-1.25041056.72385678-1.62067888 2.87306715-1.0944506 5.56251121.42910548 2.19313613 1.45037825 4.7692774 2.89124904 7.2582018z" fill-rule="nonzero"/></g></svg>